<?xml version="1.0" standalone="no"?><!DOCTYPE svg PUBLIC "-//W3C//DTD SVG 1.1//EN" "http://www.w3.org/Graphics/SVG/1.1/DTD/svg11.dtd"><svg t="1683812549550" class="icon" viewBox="0 0 1024 1024" version="1.1" xmlns="http://www.w3.org/2000/svg" p-id="6622" xmlns:xlink="http://www.w3.org/1999/xlink" width="200" height="200"><path d="M149.443 445.076a36.383 36.383 0 0 1-36.383-36.382v-50.54c0-135.977 110.628-246.6 246.605-246.6h20.213a36.383 36.383 0 0 1 0 72.766h-20.213c-95.852 0-173.835 77.978-173.835 173.83v50.539a36.393 36.393 0 0 1-36.387 36.387z m727.68 0a36.383 36.383 0 0 1-36.383-36.382v-50.54c0-95.851-77.983-173.829-173.834-173.829h-20.214a36.383 36.383 0 0 1 0-72.765h20.214c135.977 0 246.604 110.622 246.604 246.6v50.539a36.388 36.388 0 0 1-36.387 36.377zM737.649 469.33v-63.672c0-65.04-53.213-118.247-118.247-118.247H407.158c-65.04 0-118.247 53.212-118.247 118.247v63.672H737.65z" fill="#687899" opacity=".5" p-id="6623"></path><path d="M962.017 529.971H64.543a36.383 36.383 0 0 0 0 72.766h48.512V665.4c0 135.977 110.628 246.6 246.605 246.6h26.275a36.383 36.383 0 0 0 0-72.765H359.66c-95.852 0-173.835-77.978-173.835-173.83v-62.663h103.086v15.16c0 65.04 53.213 118.246 118.247 118.246h212.24c65.038 0 118.246-53.212 118.246-118.246v-15.16H840.73v62.663c0 95.852-77.983 173.83-173.835 173.83H652.75a36.383 36.383 0 0 0 0 72.765h14.146C802.872 912 913.5 801.377 913.5 665.4v-62.663h48.512a36.383 36.383 0 0 0 0.005-72.766z" fill="#687899" p-id="6624"></path></svg>